<svg width="344" height="469" viewBox="0 0 344 469" fill="none" xmlns="http://www.w3.org/2000/svg">
<rect width="344" height="469" rx="10" fill="url(#paint0_linear_78_40)"/>
<path d="M103 443.482C102.809 463.537 229.221 465.375 231.628 443.484C231.82 423.43 105.408 421.592 103 443.482Z" fill="#E6E6E6"/>
<path d="M201.904 373.862L211.299 378.985L205.32 398.623L195.926 399.477L190.801 388.377L201.904 373.862Z" fill="#9F616A"/>
<path d="M172.866 413.137V422.529L158.347 421.675L158.549 413.94L172.866 413.137Z" fill="#9F616A"/>
<path d="M205.32 261.158L200.196 325.195L183.969 419.114L158.347 415.699L166.887 341.417L163.471 273.112L205.32 261.158Z" fill="#2F2E41"/>
<path d="M136.995 213.344L198.488 214.198L205.32 261.158L163.471 280.796L153.222 318.364L205.32 373.862L184.823 399.477C184.823 399.477 155.784 360.201 134.433 338.002C113.081 315.802 123.33 248.351 123.33 248.351L136.995 213.344Z" fill="#2F2E41"/>
<path d="M173.72 92.1022C163.343 92.1022 154.931 83.6923 154.931 73.3182C154.931 62.9441 163.343 54.5342 173.72 54.5342C184.097 54.5342 192.509 62.9441 192.509 73.3182C192.509 83.6923 184.097 92.1022 173.72 92.1022Z" fill="#9F616A"/>
<path d="M180.552 86.1251V104.909L167.741 125.401C167.741 125.401 148.098 110.886 152.368 107.471C156.639 104.055 157.493 77.5869 157.493 77.5869L180.552 86.1251Z" fill="#9F616A"/>
<path d="M180.552 101.494L193.364 116.862L188.239 223.589L148.098 222.736L141.266 129.67L149.806 105.763L155.664 97.7944L166.033 113.447L180.552 101.494Z" fill="#D0CDE1"/>
<path d="M201.05 156.992L210.445 192.852L201.05 228.713L216.423 249.204L230.088 184.314C230.088 184.314 219.839 131.377 218.985 125.401C218.131 119.424 216.423 118.57 216.423 118.57L209.591 119.424L201.05 156.992Z" fill="#2F2E41"/>
<path d="M132.725 170.653L126.747 181.753L125.038 200.537L128.454 221.882L116.498 241.52L104.541 187.729L117.352 118.57H122.476L132.725 170.653Z" fill="#2F2E41"/>
<path d="M205.32 373.008C205.32 373.008 217.277 376.423 221.547 377.277C225.818 378.131 218.985 394.353 218.985 394.353C218.985 394.353 214.715 416.553 213.861 420.822C213.007 425.091 207.028 439.606 199.342 441.313C191.655 443.021 196.78 411.43 196.78 411.43C196.78 411.43 193.363 401.184 193.363 397.769C193.363 394.353 198.488 396.061 198.488 396.061C212.153 394.353 205.32 373.008 205.32 373.008Z" fill="#2F2E41"/>
<path d="M177.136 438.752C176.282 443.875 177.99 443.875 164.325 445.583C150.66 447.291 154.076 436.191 154.076 436.191C154.648 430.958 155.793 425.804 157.493 420.822C160.055 413.992 173.72 422.53 173.72 422.53C173.72 422.53 177.99 433.629 177.136 438.752Z" fill="#2F2E41"/>
<path d="M157.47 78.1833L157.025 85.7767C157.025 85.7767 151.514 73.3179 150.66 60.5106C149.806 47.7034 164.325 45.1419 172.866 44.2881C181.406 43.4343 195.925 49.411 195.925 56.2416C195.925 63.0721 180.552 61.3645 174.574 59.6569C168.595 57.9492 166.033 72.4641 166.033 72.4641L162.617 73.318L157.47 78.1833Z" fill="#2F2E41"/>
<path d="M185.593 107.54L180.552 101.494L166.033 113.447L180.552 123.693L185.593 107.54Z" fill="#D0CDE1"/>
<path d="M149.806 105.763L155.784 98.0786L166.033 113.447L153.222 122.839L149.806 105.763Z" fill="#D0CDE1"/>
<path d="M203.612 168.946L200.196 201.391L207.028 221.028L211.299 239.812C211.299 239.812 211.299 257.743 194.217 258.596C177.136 259.45 162.617 204.806 162.617 204.806C162.617 204.806 160.055 216.759 158.347 223.59C156.639 230.42 127.6 257.743 127.6 257.743C127.6 257.743 120.768 256.889 114.789 243.228C108.811 229.567 126.746 216.759 126.746 216.759L131.871 198.829L130.163 176.63L118.206 118.57L153.649 100.213L149.806 149.308L162.617 187.73L181.833 102.775L188.239 107.471L215.569 118.57L203.612 168.946Z" fill="#2F2E41"/>
<defs>
<linearGradient id="paint0_linear_78_40" x1="0" y1="0" x2="433.879" y2="346.194" gradientUnits="userSpaceOnUse">
<stop stop-color="#0E9BE8"/>
<stop offset="1" stop-color="#3AD283"/>
</linearGradient>
</defs>
</svg>
