<svg width="51" height="51" viewBox="0 0 51 51" fill="none" xmlns="http://www.w3.org/2000/svg">
<path d="M0 1.64516C0 0.736565 0.736564 0 1.64516 0H49.3548C50.2634 0 51 0.736564 51 1.64516V49.3548C51 50.2634 50.2634 51 49.3548 51H1.64516C0.736565 51 0 50.2634 0 49.3548V1.64516Z" fill="#3F3D56"/>
<path d="M18.8358 45.4065C22.513 45.4065 25.4973 42.4583 25.4973 38.8258V32.2452H18.8358C15.1586 32.2452 12.1742 35.1933 12.1742 38.8258C12.1742 42.4583 15.1586 45.4065 18.8358 45.4065Z" fill="#0ACF83"/>
<path d="M12.1742 25.6645C12.1742 22.032 15.1586 19.0839 18.8358 19.0839H25.4973V32.2452H18.8358C15.1586 32.2452 12.1742 29.297 12.1742 25.6645Z" fill="#A259FF"/>
<path d="M12.1742 12.5032C12.1742 8.87071 15.1586 5.92258 18.8358 5.92258H25.4973V19.0839H18.8358C15.1586 19.0839 12.1742 16.1357 12.1742 12.5032Z" fill="#F24E1E"/>
<path d="M25.4973 5.92258H32.1589C35.8361 5.92258 38.8205 8.87071 38.8205 12.5032C38.8205 16.1357 35.8361 19.0839 32.1589 19.0839H25.4973V5.92258Z" fill="#FF7262"/>
<path d="M38.8205 25.6645C38.8205 29.297 35.8361 32.2452 32.1589 32.2452C28.4817 32.2452 25.4973 29.297 25.4973 25.6645C25.4973 22.032 28.4817 19.0839 32.1589 19.0839C35.8361 19.0839 38.8205 22.032 38.8205 25.6645Z" fill="#1ABCFE"/>
</svg>
