<svg width="32" height="36" viewBox="0 0 32 36" fill="none" xmlns="http://www.w3.org/2000/svg">
<path d="M16 0.5C7.16 0.5 0 8.50066 0 18.3786C0 26.2898 4.58 32.9719 10.94 35.3408C11.74 35.4973 12.04 34.9609 12.04 34.4916C12.04 34.067 12.02 32.6591 12.02 31.1617C8 31.9886 6.96 30.0667 6.64 29.061C6.46 28.547 5.68 26.9603 5 26.5357C4.44 26.2004 3.64 25.3735 4.98 25.3512C6.24 25.3289 7.14 26.6474 7.44 27.1838C8.88 29.8879 11.18 29.128 12.1 28.6587C12.24 27.4966 12.66 26.7144 13.12 26.2675C9.56 25.8205 5.84 24.2785 5.84 17.4399C5.84 15.4956 6.46 13.8866 7.48 12.6351C7.32 12.1881 6.76 10.3556 7.64 7.89725C7.64 7.89725 8.98 7.42794 12.04 9.72981C13.32 9.32754 14.68 9.12641 16.04 9.12641C17.4 9.12641 18.76 9.32754 20.04 9.72981C23.1 7.40559 24.44 7.89725 24.44 7.89725C25.32 10.3556 24.76 12.1881 24.6 12.6351C25.62 13.8866 26.24 15.4733 26.24 17.4399C26.24 24.3008 22.5 25.8205 18.94 26.2675C19.52 26.8262 20.02 27.8989 20.02 29.575C20.02 31.9663 20 33.8882 20 34.4916C20 34.9609 20.3 35.5196 21.1 35.3408C24.2765 34.143 27.0367 31.862 28.9921 28.8191C30.9474 25.7762 31.9994 22.1247 32 18.3786C32 8.50066 24.84 0.5 16 0.5Z" fill="white"/>
</svg>
