<svg width="33" height="37" viewBox="0 0 33 37" fill="none" xmlns="http://www.w3.org/2000/svg">
<path d="M0.858765 3.0785C0.858765 1.65425 1.91008 0.5 3.20723 0.5H30.4894C31.7866 0.5 32.8379 1.65425 32.8379 3.0785V33.9215C32.8379 35.3457 31.7866 36.5 30.4894 36.5H3.20723C1.91008 36.5 0.858765 35.3457 0.858765 33.9215V3.0785ZM10.7383 30.6365V14.3802H5.93945V30.6365H10.7383ZM8.33988 12.1595C10.0128 12.1595 11.0541 10.913 11.0541 9.3515C11.0241 7.75625 10.0148 6.5435 8.37186 6.5435C6.72893 6.5435 5.65563 7.7585 5.65563 9.3515C5.65563 10.913 6.69695 12.1595 8.3079 12.1595H8.33988ZM18.1495 30.6365V21.5578C18.1495 21.0718 18.1814 20.5857 18.3094 20.2393C18.6551 19.2695 19.4446 18.2638 20.7718 18.2638C22.5086 18.2638 23.2022 19.7533 23.2022 21.9403V30.6365H28.001V21.3125C28.001 16.3175 25.6346 13.9955 22.4766 13.9955C19.9303 13.9955 18.789 15.5705 18.1495 16.6797V16.736H18.1175C18.1281 16.7172 18.1388 16.6985 18.1495 16.6797V14.3802H13.3526C13.4126 15.9058 13.3526 30.6365 13.3526 30.6365H18.1495Z" fill="white"/>
</svg>
