<svg width="28" height="13" viewBox="0 0 28 13" fill="none" xmlns="http://www.w3.org/2000/svg">
<path d="M10.708 0.75H6C4.4087 0.75 2.88258 1.38214 1.75736 2.50736C0.632141 3.63258 0 5.1587 0 6.75C0 8.3413 0.632141 9.86743 1.75736 10.9926C2.88258 12.1179 4.4087 12.75 6 12.75H12C12.9602 12.7505 13.9064 12.5206 14.7593 12.0795C15.6121 11.6385 16.3467 10.9992 16.9012 10.2154C17.4558 9.43158 17.8141 8.52612 17.9462 7.5751C18.0782 6.62407 17.9801 5.65524 17.66 4.75H16C15.828 4.75 15.66 4.77 15.5 4.812C15.8373 5.42101 16.0098 6.10752 16.0005 6.80363C15.9912 7.49975 15.8003 8.18138 15.4468 8.78113C15.0933 9.38088 14.5894 9.87798 13.9849 10.2233C13.3804 10.5686 12.6962 10.7502 12 10.75H6C4.93914 10.75 3.92172 10.3286 3.17157 9.57843C2.42143 8.82829 2 7.81087 2 6.75C2 5.68914 2.42143 4.67172 3.17157 3.92157C3.92172 3.17143 4.93914 2.75 6 2.75H9.07001C9.50601 1.998 10.06 1.322 10.71 0.75H10.708Z" fill="white"/>
<path d="M16 0.750001C15.0398 0.749497 14.0936 0.979427 13.2407 1.42047C12.3879 1.86152 11.6533 2.5008 11.0988 3.28462C10.5442 4.06843 10.1859 4.97388 10.0538 5.92491C9.92179 6.87594 10.0199 7.84477 10.34 8.75001H12.536C12.1849 8.14194 12.0001 7.45217 12.0001 6.75003C12.0001 6.04789 12.1849 5.35812 12.5359 4.75005C12.887 4.14197 13.3919 3.63702 14 3.28594C14.6081 2.93486 15.2978 2.75002 16 2.75H22C23.0608 2.75 24.0783 3.17143 24.8284 3.92158C25.5786 4.67172 26 5.68914 26 6.75C26 7.81087 25.5786 8.82829 24.8284 9.57843C24.0783 10.3286 23.0608 10.75 22 10.75H18.93C18.4948 11.5008 17.941 12.1762 17.29 12.75H22C22.7879 12.75 23.5681 12.5948 24.2961 12.2933C25.024 11.9918 25.6855 11.5498 26.2426 10.9926C26.7998 10.4355 27.2417 9.77406 27.5433 9.04611C27.8448 8.31815 28 7.53794 28 6.75C28 5.96207 27.8448 5.18186 27.5433 4.4539C27.2417 3.72595 26.7998 3.06451 26.2426 2.50736C25.6855 1.95021 25.024 1.50825 24.2961 1.20672C23.5681 0.905196 22.7879 0.750001 22 0.750001H16Z" fill="white"/>
</svg>
